<?xml version="1.0"?>
<svg xmlns="http://www.w3.org/2000/svg" xmlns:xlink="http://www.w3.org/1999/xlink" version="1.1" id="Layer_1" x="0px" y="0px" viewBox="0 0 512 512" style="enable-background:new 0 0 512 512;" xml:space="preserve" width="512px" height="512px" class=""><g><polygon style="fill:#FFE164;" points="492.795,199.116 492.795,358.108 19.205,358.108 19.205,199.116 89.615,230.33   128.607,169.296 179.29,226.247 256,108.198 332.71,226.247 383.393,169.296 422.385,230.33 " data-original="#FFE164"/><rect x="19.2" y="330.19" style="fill:#EFCF4B;" width="473.59" height="27.913" data-original="#EFCF4B"/><path style="fill:#FFE164;" d="M491.447,403.802H20.553c-7.209,0-13.053-5.844-13.053-13.053v-19.587  c0-7.209,5.844-13.053,13.053-13.053h470.893c7.209,0,13.053,5.844,13.053,13.053v19.587  C504.5,397.957,498.656,403.802,491.447,403.802z" data-original="#FFE164"/><polygon style="fill:#A6AEF2;" points="256,191.26 187.667,273.57 256,355.88 324.333,273.57 " data-original="#A6AEF2"/><polygon style="fill:#C4C8F7;" points="256,355.88 256,326.192 299.687,273.57 324.333,273.57 " data-original="#C4C8F7"/><polygon style="fill:#96A0EE;" points="256,191.26 256,220.948 212.313,273.57 187.667,273.57 " data-original="#96A0EE"/><polygon style="fill:#7884EA;" points="256,191.26 256,220.948 299.687,273.57 324.333,273.57 " data-original="#7884EA"/><polygon style="fill:#D0D4F4;" points="256,220.948 212.313,273.57 256,326.192 299.687,273.57 " data-original="#D0D4F4"/><g>
	<polygon style="fill:#FF3C63;" points="393.048,246.173 362.88,282.512 393.048,318.85 423.216,282.512  " data-original="#FF3C63"/>
	<polygon style="fill:#FF3C63;" points="118.952,246.173 88.784,282.512 118.952,318.85 149.12,282.512  " data-original="#FF3C63"/>
</g><g>
	<polygon style="fill:#49CDEB;" points="492.795,246.199 492.795,318.827 492.773,318.848 462.61,282.513 492.773,246.177  " data-original="#49CDEB"/>
	<polygon style="fill:#49CDEB;" points="49.369,282.513 19.205,318.848 19.205,246.177  " data-original="#49CDEB"/>
</g><path d="M500.294,352.639v-33.813v-72.627v-47.083c0-2.537-1.283-4.903-3.41-6.287c-2.128-1.383-4.81-1.599-7.129-0.569  l-9.279,4.114v-16.88c0-2.563-1.309-4.949-3.471-6.326c-2.162-1.378-4.877-1.554-7.201-0.47l-58.033,27.087l-22.058-34.527  c-1.265-1.979-3.384-3.252-5.726-3.438c-2.345-0.18-4.636,0.736-6.197,2.49l-44.147,49.608l-19.398-29.852  c-2.256-3.473-6.902-4.46-10.375-2.202c-3.474,2.257-4.459,6.902-2.202,10.376l24.754,38.094c1.274,1.961,3.391,3.216,5.723,3.392  c2.332,0.179,4.613-0.744,6.168-2.492l44.095-49.549l33.658,52.684c1.995,3.123,5.971,4.319,9.36,2.818l59.87-26.541v32.8  l-28.455,34.277c-2.306,2.777-2.306,6.803,0,9.58l28.455,34.277v29.028h-215.17l59.98-72.247c4.309-5.349-0.386-10.047-3.71-14.05  c-5.948-7.164-11.896-14.329-17.843-21.493c-13.983-16.842-27.965-33.685-41.948-50.527c-2.213-2.665-4.747-6.978-8.241-8.145  c-4.869-1.625-7.74,1.85-10.447,5.111c-13.019,15.682-26.038,31.363-39.057,47.045c-7.183,8.652-14.367,17.305-21.55,25.957  c-3.626,4.367-10.242,10.108-5.413,16.102l59.98,72.247H26.706v-29.054l28.434-34.251c2.306-2.777,2.306-6.803,0-9.58  l-28.434-34.251v-32.826l59.87,26.541c3.387,1.502,7.365,0.305,9.36-2.818l33.658-52.684l44.095,49.549  c1.555,1.747,3.834,2.673,6.168,2.492c2.333-0.176,4.449-1.431,5.724-3.392L256,121.963l27.88,42.906  c2.257,3.473,6.903,4.46,10.375,2.202c3.473-2.257,4.459-6.902,2.203-10.376l-34.169-52.584c-1.384-2.129-3.75-3.413-6.289-3.413  s-4.905,1.284-6.289,3.413l-71.354,109.807L134.21,164.31c-1.562-1.754-3.856-2.668-6.197-2.49  c-2.342,0.187-4.461,1.459-5.726,3.438l-22.058,34.527l-58.033-27.087c-2.324-1.086-5.039-0.908-7.201,0.47  c-2.162,1.377-3.471,3.763-3.471,6.326v16.88l-9.279-4.114c-2.318-1.026-5.002-0.813-7.129,0.569c-2.127,1.384-3.41,3.75-3.41,6.287  v47.062v72.67v33.791C4.795,355.953,0,362.999,0,371.161v19.587c0,11.333,9.22,20.554,20.553,20.554h470.894  c11.333,0,20.553-9.221,20.553-20.554v-19.587C512,362.999,507.205,355.953,500.294,352.639z M425.236,220.862l-5.32-8.327  l45.559-21.265v11.753L425.236,220.862z M46.524,191.271l45.559,21.265l-5.32,8.327l-40.24-17.839v-11.753H46.524z M472.357,282.513  l12.937-15.584v31.168L472.357,282.513z M256,232.689l33.939,40.881L256,314.451l-33.939-40.881L256,232.689z M263.5,328.9  l39.708-47.83h5.151L263.5,335.105V328.9z M303.208,266.07L263.5,218.24v-6.205l44.859,54.034h-5.151V266.07z M248.5,218.24  l-39.708,47.83h-5.151l44.859-54.034V218.24z M208.792,281.07L248.5,328.9v6.205l-44.859-54.034L208.792,281.07L208.792,281.07z   M39.621,282.513l-12.916,15.559v-31.117L39.621,282.513z M491.447,396.302H20.553c-3.062,0-5.553-2.491-5.553-5.554v-2.094h344  c4.142,0,7.5-3.357,7.5-7.5s-3.358-7.5-7.5-7.5H15v-2.493c0-3.062,2.491-5.553,5.553-5.553h470.894c3.062,0,5.553,2.491,5.553,5.553  v2.493H388.667c-4.142,0-7.5,3.357-7.5,7.5s3.358,7.5,7.5,7.5H497v2.094C497,393.811,494.509,396.302,491.447,396.302z" data-original="#000000"/><path d="M393.048,326.35c2.23,0,4.346-0.993,5.771-2.709l30.168-36.338c2.306-2.778,2.306-6.804,0-9.582l-30.168-36.339  c-1.425-1.716-3.54-2.709-5.771-2.709s-4.346,0.993-5.771,2.709l-30.168,36.339c-2.306,2.778-2.306,6.804,0,9.582l30.168,36.338  C388.703,325.356,390.818,326.35,393.048,326.35z M393.048,257.914l20.42,24.598l-20.42,24.597l-20.42-24.597L393.048,257.914z" data-original="#000000"/><path d="M94.554,277.721c-2.647-3.188-7.376-3.625-10.561-0.979c-3.187,2.646-3.626,7.374-0.98,10.562l30.168,36.338  c1.425,1.716,3.54,2.709,5.771,2.709s4.346-0.993,5.771-2.709l30.168-36.338c2.306-2.778,2.306-6.804,0-9.582l-30.168-36.339  c-1.425-1.716-3.54-2.709-5.771-2.709s-4.346,0.993-5.771,2.709l-12.052,14.518c-2.646,3.188-2.207,7.916,0.98,10.562  c3.186,2.646,7.916,2.207,10.561-0.979l6.282-7.567l20.42,24.598l-20.42,24.597L94.554,277.721z" data-original="#000000"/></g> </svg>
