<?xml version="1.0"?>
<svg xmlns="http://www.w3.org/2000/svg" xmlns:xlink="http://www.w3.org/1999/xlink" version="1.1" id="Capa_1" x="0px" y="0px" viewBox="0 0 511.999 511.999" style="enable-background:new 0 0 511.999 511.999;" xml:space="preserve" width="512px" height="512px" class=""><g><g>
	<g>
		<g>
			<path d="M126.228,283.895c0,15.676,12.753,28.429,28.429,28.429c15.675,0,28.428-12.753,28.428-28.429     s-12.753-28.429-28.428-28.429C138.981,255.466,126.228,268.219,126.228,283.895z M168.085,283.895     c0,7.405-6.024,13.429-13.428,13.429c-7.405,0-13.429-6.024-13.429-13.429c0-7.405,6.024-13.429,13.429-13.429     C162.061,270.466,168.085,276.49,168.085,283.895z" data-original="#000000" class="active-path" data-old_color="#000000" fill="#8BC34A"/>
			<path d="M207.093,278.856c0,29.913,21.939,54.249,48.907,54.249s48.907-24.336,48.907-54.249c0-29.913-21.94-54.25-48.907-54.25     C229.033,224.606,207.093,248.943,207.093,278.856z M289.907,278.856c0,21.642-15.21,39.25-33.907,39.25     s-33.907-17.607-33.907-39.25s15.21-39.249,33.907-39.249C274.697,239.607,289.907,257.214,289.907,278.856z" data-original="#000000" class="active-path" data-old_color="#000000" fill="#8BC34A"/>
			<path d="M357.343,255.466c-15.676,0-28.429,12.753-28.429,28.429c0,15.676,12.753,28.429,28.429,28.429     s28.429-12.753,28.429-28.429S373.019,255.466,357.343,255.466z M357.343,297.324c-7.405,0-13.429-6.024-13.429-13.429     c0-7.405,6.024-13.429,13.429-13.429c7.405,0,13.429,6.024,13.429,13.429C370.772,291.3,364.748,297.324,357.343,297.324z" data-original="#000000" class="active-path" data-old_color="#000000" fill="#8BC34A"/>
			<path d="M485.8,345.765h-5.581v-20.366c14.253-9.49,23.815-26.799,23.815-46.543c0-19.744-9.562-37.053-23.815-46.543v-13.441     c0-4.142-3.358-7.5-7.5-7.5c-4.142,0-7.5,3.358-7.5,7.5v6.903c-3.258-0.761-6.633-1.168-10.092-1.168     c-26.967,0-48.907,24.336-48.907,54.249c0,29.913,21.939,54.249,48.907,54.249c3.459,0,6.834-0.406,10.092-1.168v13.827h-89.95     c-4.142,0-7.5,3.358-7.5,7.5c0,4.142,3.358,7.5,7.5,7.5H485.8c3.303,0,5.99,2.687,5.99,5.99v34.756c0,3.303-2.687,5.99-5.99,5.99     H26.2c-3.303,0-5.99-2.687-5.99-5.99v-34.756c0-3.303,2.687-5.99,5.99-5.99h310.215c4.142,0,7.5-3.358,7.5-7.5     c0-4.142-3.358-7.5-7.5-7.5H46.781v-13.827c3.258,0.761,6.632,1.168,10.092,1.168c26.967,0,48.907-24.336,48.907-54.249     c0-8.297-1.644-16.263-4.886-23.675c-1.66-3.796-6.082-5.527-9.877-3.867c-3.795,1.66-5.526,6.082-3.866,9.877     c2.408,5.506,3.629,11.45,3.629,17.665c0,21.642-15.21,39.25-33.907,39.25c-18.696,0-33.907-17.607-33.907-39.25     s15.211-39.249,33.907-39.249c5.621,0,11.19,1.63,16.103,4.714c3.508,2.203,8.137,1.143,10.339-2.365     c2.202-3.508,1.144-8.137-2.365-10.339c-7.306-4.587-15.632-7.01-24.078-7.01c-3.459,0-6.834,0.406-10.092,1.168v-58.442     c5.927-1.151,11.384-3.632,16.04-7.128l65.082,58.915c5.627,5.094,12.682,7.64,19.738,7.64c7.055,0,14.112-2.547,19.737-7.64     l65.082-58.915c6.565,4.93,14.717,7.855,23.54,7.855s16.975-2.925,23.54-7.855l65.082,58.915     c5.627,5.094,12.682,7.64,19.738,7.64c7.055,0,14.112-2.547,19.737-7.64l65.082-58.915c4.656,3.497,10.113,5.978,16.04,7.128     v22.345c0,4.142,3.358,7.5,7.5,7.5c4.142,0,7.5-3.358,7.5-7.5v-22.345c18.083-3.511,31.781-19.46,31.781-38.554     c0-21.66-17.621-39.281-39.281-39.281c-21.66,0-39.281,17.621-39.281,39.281c0,7.428,2.073,14.38,5.67,20.31l-65.078,58.91     c-5.513,4.992-13.828,4.991-19.342,0l-65.077-58.91c3.597-5.93,5.67-12.882,5.67-20.31c0-21.66-17.621-39.281-39.281-39.281     c-21.66,0-39.281,17.621-39.281,39.281c0,7.428,2.073,14.38,5.67,20.31l-65.078,58.91c-5.514,4.992-13.829,4.991-19.342,0     l-65.077-58.91c3.597-5.93,5.67-12.882,5.67-20.31c0-21.66-17.621-39.281-39.281-39.281C17.621,89.498,0,107.119,0,128.778     c0,19.095,13.697,35.043,31.781,38.554v64.98c-14.254,9.49-23.816,26.799-23.816,46.544c0,19.744,9.562,37.053,23.816,46.544     v20.365H26.2c-11.574,0-20.99,9.416-20.99,20.99v34.756c0,11.574,9.416,20.99,20.99,20.99h459.6     c11.574,0,20.99-9.416,20.99-20.99v-34.756C506.79,355.181,497.374,345.765,485.8,345.765z M455.127,318.105     c-18.696,0-33.907-17.607-33.907-39.25s15.211-39.249,33.907-39.249s33.907,17.607,33.907,39.249     C489.034,300.497,473.824,318.105,455.127,318.105z M472.719,104.498c13.389,0,24.281,10.892,24.281,24.281     c0,13.389-10.892,24.281-24.281,24.281c-13.389,0-24.281-10.892-24.281-24.281C448.438,115.39,459.331,104.498,472.719,104.498z      M256,104.498c13.389,0,24.281,10.892,24.281,24.281c0,13.389-10.892,24.28-24.281,24.28c-13.389,0-24.281-10.892-24.281-24.281     C231.719,115.389,242.611,104.498,256,104.498z M15,128.778c0-13.389,10.892-24.281,24.281-24.281s24.281,10.892,24.281,24.281     s-10.893,24.281-24.281,24.281C25.892,153.059,15,142.167,15,128.778z" data-original="#000000" class="active-path" data-old_color="#000000" fill="#8BC34A"/>
		</g>
	</g>
</g></g> </svg>
