<?xml version="1.0" encoding="iso-8859-1"?>
<!-- Generator: Adobe Illustrator 19.0.0, SVG Export Plug-In . SVG Version: 6.00 Build 0)  -->
<svg xmlns="http://www.w3.org/2000/svg" xmlns:xlink="http://www.w3.org/1999/xlink" version="1.1" id="Capa_1" x="0px" y="0px" viewBox="0 0 512 512" style="enable-background:new 0 0 512 512;" xml:space="preserve" width="512px" height="512px">
<g>
	<g>
		<path d="M480.383,384.888l-68.734-23.026C478.244,284.439,512,211.266,512,144.25C512,68.846,450.654,7.5,375.25,7.5    c-49.963,0-95.23,26.92-119.25,69.748C231.98,34.42,186.714,7.5,136.75,7.5C61.346,7.5,0,68.846,0,144.25    c0,32.782,8.118,67.342,24.127,102.72c1.708,3.774,6.15,5.449,9.925,3.741c3.773-1.708,5.448-6.151,3.741-9.925    C22.669,207.364,15,174.885,15,144.25C15,77.117,69.617,22.5,136.75,22.5c49.213,0,93.306,29.331,112.333,74.724    c1.168,2.787,3.895,4.601,6.917,4.601c3.021,0,5.749-1.814,6.917-4.601C281.944,51.831,326.037,22.5,375.25,22.5    C442.383,22.5,497,77.117,497,144.25c0,62.751-31.957,131.934-94.977,205.775l-21.912-65.407    c-1.023-3.057-3.888-5.118-7.111-5.118c-3.223,0-6.088,2.061-7.111,5.118l-25.162,75.108l-75.109,25.162    c-3.057,1.024-5.117,3.887-5.117,7.112c0,3.225,2.061,6.087,5.117,7.112l67.201,22.513    c-23.091,21.467-48.861,43.547-76.818,65.803c-62.165-49.491-112.951-97.682-150.998-143.292    c-2.654-3.181-7.383-3.609-10.563-0.955c-3.181,2.653-3.608,7.383-0.955,10.563c39.654,47.537,92.769,97.716,157.868,149.141    c1.363,1.076,3.006,1.615,4.649,1.615c1.644,0,3.286-0.538,4.649-1.615c30.217-23.871,58-47.586,82.754-70.621l22.485,67.118    c1.023,3.057,3.888,5.118,7.111,5.118c3.223,0,6.088-2.061,7.111-5.118l25.162-75.108l75.109-25.162    c3.057-1.024,5.117-3.887,5.117-7.112C485.5,388.775,483.439,385.913,480.383,384.888z M396.966,411.238    c-2.23,0.747-3.981,2.498-4.729,4.729L373,473.39l-19.095-56.997c-0.005-0.016-0.143-0.426-0.143-0.426    c-0.091-0.27-0.195-0.523-0.309-0.77c-0.035-0.075-0.076-0.146-0.113-0.22c-0.087-0.174-0.177-0.345-0.277-0.509    c-0.047-0.077-0.098-0.151-0.147-0.226c-0.101-0.154-0.206-0.305-0.317-0.45c-0.056-0.074-0.114-0.145-0.173-0.217    c-0.115-0.139-0.235-0.274-0.36-0.403c-0.064-0.067-0.128-0.134-0.195-0.199c-0.133-0.129-0.272-0.25-0.413-0.368    c-0.066-0.055-0.129-0.113-0.197-0.166c-0.198-0.155-0.404-0.3-0.616-0.434c-0.042-0.027-0.087-0.051-0.13-0.077    c-0.196-0.118-0.396-0.228-0.602-0.327c-0.084-0.041-0.172-0.075-0.258-0.113c-0.164-0.072-0.33-0.14-0.5-0.201    c-0.042-0.015-0.081-0.035-0.123-0.049L291.61,392l57.424-19.238c2.23-0.747,3.981-2.498,4.729-4.729L373,310.61l19.237,57.423    c0.747,2.231,2.498,3.982,4.729,4.729L454.39,392L396.966,411.238z" fill="#08bc34"/>
	</g>
</g>
<g>
	<g>
		<path d="M279.883,177.138l-75.109-25.162l-25.163-75.109c-1.024-3.057-3.887-5.117-7.111-5.117s-6.087,2.061-7.111,5.117    l-25.163,75.109l-75.108,25.162C62.061,178.163,60,181.026,60,184.25s2.061,6.087,5.118,7.112l75.108,25.162l25.163,75.109    c1.024,3.057,3.887,5.117,7.111,5.117s6.087-2.061,7.111-5.117l25.163-75.109l75.109-25.162c3.057-1.024,5.117-3.887,5.117-7.112    C285,181.025,282.939,178.163,279.883,177.138z M196.467,203.488c-2.231,0.747-3.982,2.498-4.729,4.729L172.5,265.64    l-19.238-57.423c-0.747-2.231-2.498-3.982-4.729-4.729L91.11,184.25l57.423-19.238c2.231-0.747,3.982-2.498,4.729-4.729    L172.5,102.86l19.238,57.423c0.747,2.231,2.498,3.982,4.729,4.729l57.423,19.238L196.467,203.488z" fill="#08bc34"/>
	</g>
</g>
<g>
	<g>
		<path d="M129.882,282.138l-41.401-13.87l-13.87-41.401c-1.024-3.057-3.887-5.117-7.111-5.117s-6.087,2.061-7.111,5.117    l-13.87,41.401l-41.401,13.87C2.061,283.163,0,286.026,0,289.25s2.061,6.087,5.118,7.112l41.401,13.87l13.87,41.401    c1.024,3.057,3.887,5.117,7.111,5.117s6.087-2.061,7.111-5.117l13.87-41.401l41.401-13.87c3.057-1.025,5.118-3.888,5.118-7.112    S132.939,283.163,129.882,282.138z M80.174,297.195c-2.231,0.747-3.982,2.498-4.729,4.729L67.5,325.64l-7.945-23.716    c-0.747-2.231-2.498-3.982-4.729-4.729L31.11,289.25l23.716-7.945c2.231-0.747,3.982-2.498,4.729-4.729L67.5,252.86l7.945,23.716    c0.747,2.231,2.498,3.982,4.729,4.729l23.716,7.945L80.174,297.195z" fill="#08bc34"/>
	</g>
</g>
<g>
</g>
<g>
</g>
<g>
</g>
<g>
</g>
<g>
</g>
<g>
</g>
<g>
</g>
<g>
</g>
<g>
</g>
<g>
</g>
<g>
</g>
<g>
</g>
<g>
</g>
<g>
</g>
<g>
</g>
</svg>
