<?xml version="1.0" encoding="iso-8859-1"?>
<!-- Generator: Adobe Illustrator 19.0.0, SVG Export Plug-In . SVG Version: 6.00 Build 0)  -->
<svg version="1.1" id="Capa_1" xmlns="http://www.w3.org/2000/svg" xmlns:xlink="http://www.w3.org/1999/xlink" x="0px" y="0px"
	 viewBox="0 0 512 512" style="enable-background:new 0 0 512 512;" xml:space="preserve">
<path style="fill:#E0230D;" d="M378.849,7.727c-3.626,0-7.211,0.144-10.755,0.433L256.668,496.249
	c-0.58,2.566,2.394,4.438,4.45,2.798C379.378,404.709,512,273.491,512,140.877C512,67.343,452.383,7.727,378.849,7.727z"/>
<path style="fill:#FF5440;" d="M368.094,8.159c57.484,5.47,102.699,62.81,102.699,132.718
	c0,132.676-110.477,264.266-209.738,358.613c-2.896,2.752-7.383,2.947-10.507,0.457C133.732,406.871,3.641,277.396,0.075,146.375
	C-1.969,71.287,57.4,8.079,132.514,7.728C188.086,7.468,235.803,41.26,256,89.441C274.801,44.586,317.45,12.208,368.094,8.159z"/>
<polygon style="fill:#FFD764;" points="484.7,396.105 403.676,423.25 376.531,504.274 350.777,396.105 376.531,287.936 
	403.676,368.96 "/>
<polygon style="fill:#FFE7A3;" points="376.531,287.936 376.531,504.274 349.386,423.25 268.362,396.105 349.386,368.96 "/>
<polygon style="fill:#FFD764;" points="278.149,182.085 197.125,209.23 169.98,290.254 144.225,182.085 169.98,73.916 
	197.125,154.939 "/>
<polygon style="fill:#FFE7A3;" points="169.98,73.916 169.98,290.254 142.835,209.23 61.811,182.085 142.835,154.939 "/>
<polygon style="fill:#FFD764;" points="123.622,290.254 77.322,305.765 61.811,352.065 47.094,290.254 61.811,228.443 
	77.322,274.742 "/>
<polygon style="fill:#FFE7A3;" points="61.811,228.443 61.811,352.065 46.299,305.765 0,290.254 46.299,274.742 "/>
<g>
</g>
<g>
</g>
<g>
</g>
<g>
</g>
<g>
</g>
<g>
</g>
<g>
</g>
<g>
</g>
<g>
</g>
<g>
</g>
<g>
</g>
<g>
</g>
<g>
</g>
<g>
</g>
<g>
</g>
</svg>
