<?xml version="1.0" encoding="iso-8859-1"?>
<!-- Generator: Adobe Illustrator 19.0.0, SVG Export Plug-In . SVG Version: 6.00 Build 0)  -->
<svg version="1.1" id="Capa_1" xmlns="http://www.w3.org/2000/svg" xmlns:xlink="http://www.w3.org/1999/xlink" x="0px" y="0px"
	 viewBox="0 0 512 512" style="enable-background:new 0 0 512 512;" xml:space="preserve">
<path style="fill:#F9BE7A;" d="M228.336,382.588l20.308,20.309h74.463l115.079-81.232c0,0,27.077,0,33.847,20.309L343.416,457.052
	l-142.156,47.386l-121.85-47.387H38.793V335.202h216.62c0,0,13.539,0,13.539,13.539c0,13.539,0,27.077,0,27.077
	s0,6.769-13.539,6.769C251.419,382.588,241.062,382.588,228.336,382.588z"/>
<path style="fill:#F5A572;" d="M453.625,324.595l-110.21,98.609l-142.156,47.386L79.409,423.204H38.793v33.847h40.616
	l121.849,47.386l142.156-47.386l128.618-115.079C468.802,332.281,460.954,327.244,453.625,324.595z"/>
<g>
	<polygon style="fill:#FFD311;" points="437.982,157.371 414.425,180.386 419.976,212.879 390.8,197.58 361.624,212.879 
		367.175,180.386 343.618,157.371 376.246,152.632 390.8,123.117 405.354,152.632 	"/>
	<polygon style="fill:#FFD311;" points="343.415,249.705 326.491,266.222 330.485,289.576 309.568,278.542 288.651,289.576 
		292.644,266.222 275.72,249.705 299.076,246.32 309.568,225.132 320.06,246.32 	"/>
	<polygon style="fill:#FFD311;" points="338.405,82.637 293.524,126.367 304.152,188.171 248.643,158.995 193.134,188.171 
		203.763,126.367 158.882,82.637 220.889,73.633 248.643,17.38 276.398,73.633 	"/>
	<polygon style="fill:#FFD311;" points="221.566,249.705 204.642,266.222 208.637,289.576 187.719,278.542 166.802,289.576 
		170.796,266.222 153.873,249.705 177.227,246.32 187.719,225.132 198.212,246.32 	"/>
	<polygon style="fill:#FFD311;" points="153.669,157.371 130.112,180.386 135.663,212.879 106.487,197.58 77.311,212.879 
		82.861,180.386 59.304,157.371 91.932,152.632 106.487,123.117 121.041,152.632 	"/>
</g>
<polygon style="fill:#FFB911;" points="220.889,73.633 158.882,82.637 203.763,126.367 193.134,188.171 248.643,158.995 
	248.643,17.38 "/>
<g>
	<polygon style="fill:#231F20;" points="201.455,496.044 80.819,449.13 46.299,449.13 46.299,342.294 99.719,342.294 
		99.719,327.281 31.286,327.281 31.286,464.143 78.001,464.143 201.061,512 298.401,479.553 293.653,465.31 	"/>
	<path style="fill:#231F20;" d="M479.154,339.183c-8.384-25.152-39.642-25.441-40.968-25.441h-2.383l-115.079,81.233h-68.97
		l-5.296-5.296h8.956c20.806,0,21.045-13.694,21.045-14.276v-27.077c0-15.441-12.586-21.045-21.045-21.045h-135.39v15.013h135.39
		c0.017,0,1.804,0.096,3.412,0.9c1.361,0.681,2.62,1.773,2.62,5.132v25.438c-0.777,0.353-2.547,0.902-6.032,0.902h-101.54v15.013
		h71.353l20.309,20.309h79.955l114.893-81.101c2.231,0.202,5.903,0.718,9.815,2.022c5.807,1.937,10.044,4.884,12.652,8.794
		L339.568,450.007l-25.604,8.533l4.746,14.242l28.552-9.517l133.452-119.404L479.154,339.183z"/>
</g>
<g>
	<rect x="126.799" y="374.663" style="fill:#FFFFFF;" width="13.538" height="15.013"/>
	<rect x="99.716" y="374.663" style="fill:#FFFFFF;" width="13.539" height="15.013"/>
</g>
<g>
	<path style="fill:#231F20;" d="M183.158,201.482l65.485-34.421l65.485,34.421l-12.537-72.909l52.951-51.592l-73.16-10.622
		L248.643,0l-32.739,66.358l-73.16,10.622l52.951,51.592L183.158,201.482z M175.019,87.464l50.856-7.383l22.77-46.149l22.77,46.149
		l50.856,7.383l-36.812,35.868l8.72,50.702l-45.532-23.933l-45.532,23.933l8.72-50.702L175.019,87.464z"/>
	<path style="fill:#231F20;" d="M359.112,182.59l-7.443,43.572l39.131-20.52l39.132,20.52l-7.444-43.572l31.605-30.88l-43.753-6.354
		L390.8,105.73l-19.54,39.626l-43.753,6.354L359.112,182.59z M381.231,159.079l9.568-19.404l9.569,19.404l21.503,3.123
		l-15.509,15.153l3.659,21.413L390.8,188.69l-19.221,10.079l3.658-21.413l-15.509-15.153L381.231,159.079z"/>
	<path style="fill:#231F20;" d="M67.356,226.162l39.131-20.52l39.131,20.52l-7.443-43.572l31.605-30.88l-43.753-6.354l-19.54-39.626
		l-19.54,39.626l-43.753,6.354l31.605,30.88L67.356,226.162z M96.917,159.079l9.569-19.404l9.569,19.404l21.503,3.123
		l-15.509,15.153l3.658,21.413l-19.221-10.079l-19.221,10.079l3.658-21.413l-15.509-15.153L96.917,159.079z"/>
	<path style="fill:#231F20;" d="M203.189,239.043l-15.47-31.24l-15.47,31.24l-34.501,5l24.985,24.384l-5.898,34.479l30.884-16.291
		l30.883,16.29l-5.896-34.478l24.985-24.384L203.189,239.043z M198.67,275.419l-10.951-5.778l-10.95,5.777l2.092-12.23l-8.863-8.65
		l12.208-1.77l5.515-11.137l5.515,11.137l12.209,1.77l-8.863,8.65L198.67,275.419z"/>
	<path style="fill:#231F20;" d="M325.038,239.043l-15.47-31.24l-15.47,31.24l-34.502,5l24.985,24.384l-5.896,34.478l30.883-16.29
		l30.884,16.291l-5.898-34.479l24.985-24.384L325.038,239.043z M320.519,275.418l-10.95-5.777l-10.951,5.778l2.092-12.231
		l-8.863-8.65l12.209-1.77l5.515-11.137l5.515,11.137l12.208,1.77l-8.863,8.65L320.519,275.418z"/>
	<rect x="384.031" y="164.822" style="fill:#231F20;" width="13.539" height="15.013"/>
	<rect x="99.716" y="164.822" style="fill:#231F20;" width="13.539" height="15.013"/>
</g>
<polygon style="fill:#FFFFFF;" points="241.874,132.444 255.413,132.444 255.413,117.431 241.874,117.431 241.874,105.366 
	255.413,105.366 255.413,90.353 241.874,90.353 241.874,103.892 228.335,103.892 228.335,118.905 241.874,118.905 "/>
<g>
</g>
<g>
</g>
<g>
</g>
<g>
</g>
<g>
</g>
<g>
</g>
<g>
</g>
<g>
</g>
<g>
</g>
<g>
</g>
<g>
</g>
<g>
</g>
<g>
</g>
<g>
</g>
<g>
</g>
</svg>
