<?xml version="1.0" encoding="iso-8859-1"?>
<!-- Generator: Adobe Illustrator 19.0.0, SVG Export Plug-In . SVG Version: 6.00 Build 0)  -->
<svg version="1.1" id="Capa_1" xmlns="http://www.w3.org/2000/svg" xmlns:xlink="http://www.w3.org/1999/xlink" x="0px" y="0px"
	 viewBox="0 0 512 512" style="enable-background:new 0 0 512 512;" xml:space="preserve">
<path style="fill:#F98E2E;" d="M502.974,387.309l-181-334.002C308.834,29.062,283.554,14,256,14l-60,242l60,242h181
	c41.355,0,75-33.645,75-75C512,410.546,508.879,398.204,502.974,387.309z"/>
<path style="fill:#FAB037;" d="M190.026,53.308L9.025,387.309C3.121,398.205,0,410.547,0,423c0,41.355,33.645,75,75,75h181V14
	C228.446,14,203.166,29.062,190.026,53.308z"/>
<polygon style="fill:#FBD141;" points="453.051,422.075 265.484,74.999 256,74.999 196,256 256,437.999 444.442,437.999 "/>
<polygon style="fill:#FBF24A;" points="246.516,74.999 58.949,422.075 67.558,437.999 256,437.999 256,74.999 "/>
<g>
	<rect x="241" y="348" style="fill:#434343;" width="30" height="30"/>
	<rect x="241" y="203" style="fill:#434343;" width="30" height="115"/>
</g>
<g>
</g>
<g>
</g>
<g>
</g>
<g>
</g>
<g>
</g>
<g>
</g>
<g>
</g>
<g>
</g>
<g>
</g>
<g>
</g>
<g>
</g>
<g>
</g>
<g>
</g>
<g>
</g>
<g>
</g>
</svg>
